# xmcd
# 
# Track frame offsets:
#     182
#     18342
#     38497
#     60382
#     85762
# 
# Disc length: 1383
# 
# Revision: 12
# Processed by: cddbd v1.5.2PL0 Copyright (c) Steve Scherf et al.
# Submitted via: fre:ac v1.0.27
# 
DISCID=2b056505
DTITLE=Sasha - If You Believe
DYEAR=1998
DGENRE=Pop
TTITLE0=If You Believe (Radio Mix)
TTITLE1=If You Believe (Album Mix)
TTITLE2=If You Believe (Let It Out Mix)
TTITLE3=If You Believe (Extended Mix)
TTITLE4=If You Believe (Instrumental Mix)
EXTD=
EXTT0=
EXTT1=
EXTT2=
EXTT3=
EXTT4=
PLAYORDER=
